<svg width="200" height="200" xmlns="http://www.w3.org/2000/svg">

    <polygon
        points="95,26 148,41 123,180"
        fill="none"
        stroke="white"
        stroke-width="3"
    />

    <polygon
        points="8,19 65,81 99,25"
        fill="none"
        stroke="white"
        stroke-width="3"
    />

    <polygon
        points="106,85 3,23 110,96"
        fill="none"
        stroke="white"
        stroke-width="3"
    />

    <polygon
        points="119,159 47,98 53,108"
        fill="none"
        stroke="white"
        stroke-width="3"
    />

    <polygon
        points="191,161 160,73 65,80"
        fill="none"
        stroke="white"
        stroke-width="3"
    />

    <polygon
        points="108,52 69,190 14,119"
        fill="none"
        stroke="white"
        stroke-width="3"
    />

    <polygon
        points="89,110 175,57 108,1"
        fill="none"
        stroke="white"
        stroke-width="3"
    />

    <polygon
        points="158,134 68,40 78,93"
        fill="none"
        stroke="white"
        stroke-width="3"
    />

    <polygon
        points="42,153 141,86 177,166"
        fill="none"
        stroke="white"
        stroke-width="3"
    />

    <polygon
        points="35,60 58,39 69,85"
        fill="none"
        stroke="white"
        stroke-width="3"
    />

    <polygon
        points="114,181 29,181 75,173"
        fill="none"
        stroke="white"
        stroke-width="3"
    />

    <polygon
        points="114,55 30,161 12,90"
        fill="none"
        stroke="white"
        stroke-width="3"
    />

    <polygon
        points="68,59 84,148 178,175"
        fill="none"
        stroke="white"
        stroke-width="3"
    />

    <polygon
        points="103,67 4,80 38,27"
        fill="none"
        stroke="white"
        stroke-width="3"
    />

    <polygon
        points="73,177 139,23 55,119"
        fill="none"
        stroke="white"
        stroke-width="3"
    />

    <polygon
        points="147,161 63,38 117,72"
        fill="none"
        stroke="white"
        stroke-width="3"
    />

    <polygon
        points="71,151 106,16 133,130"
        fill="none"
        stroke="white"
        stroke-width="3"
    />

    <polygon
        points="81,82 30,121 14,187"
        fill="none"
        stroke="white"
        stroke-width="3"
    />

    <polygon
        points="11,137 55,49 115,37"
        fill="none"
        stroke="white"
        stroke-width="3"
    />

    <polygon
        points="63,93 17,140 81,161"
        fill="none"
        stroke="white"
        stroke-width="3"
    />

    <polygon
        points="70,112 91,199 19,128"
        fill="none"
        stroke="white"
        stroke-width="3"
    />

    <polygon
        points="121,193 87,171 160,7"
        fill="none"
        stroke="white"
        stroke-width="3"
    />

    <polygon
        points="39,94 199,40 182,54"
        fill="none"
        stroke="white"
        stroke-width="3"
    />

    <polygon
        points="79,37 35,166 153,86"
        fill="none"
        stroke="white"
        stroke-width="3"
    />

    <polygon
        points="110,191 74,188 194,24"
        fill="none"
        stroke="white"
        stroke-width="3"
    />

    <polygon
        points="172,190 57,110 103,112"
        fill="none"
        stroke="white"
        stroke-width="3"
    />

    <polygon
        points="116,157 88,25 107,176"
        fill="none"
        stroke="white"
        stroke-width="3"
    />

    <polygon
        points="88,187 101,61 192,185"
        fill="none"
        stroke="white"
        stroke-width="3"
    />

    <polygon
        points="199,180 83,172 130,138"
        fill="none"
        stroke="white"
        stroke-width="3"
    />

    <polygon
        points="46,126 120,177 35,59"
        fill="none"
        stroke="white"
        stroke-width="3"
    />

    <polygon
        points="196,101 38,169 98,140"
        fill="none"
        stroke="white"
        stroke-width="3"
    />

    <polygon
        points="106,54 77,172 115,99"
        fill="none"
        stroke="white"
        stroke-width="3"
    />

    <polygon
        points="86,76 25,193 103,27"
        fill="none"
        stroke="white"
        stroke-width="3"
    />

    <polygon
        points="112,21 123,29 77,124"
        fill="none"
        stroke="white"
        stroke-width="3"
    />

    <polygon
        points="60,15 110,165 29,19"
        fill="none"
        stroke="white"
        stroke-width="3"
    />

    <polygon
        points="173,134 130,118 29,90"
        fill="none"
        stroke="white"
        stroke-width="3"
    />

    <polygon
        points="44,176 45,185 57,195"
        fill="none"
        stroke="white"
        stroke-width="3"
    />

    <polygon
        points="38,88 187,24 96,98"
        fill="none"
        stroke="white"
        stroke-width="3"
    />

    <polygon
        points="7,110 138,167 42,44"
        fill="none"
        stroke="white"
        stroke-width="3"
    />

    <polygon
        points="65,133 87,33 64,44"
        fill="none"
        stroke="white"
        stroke-width="3"
    />

    <polygon
        points="160,80 30,145 69,20"
        fill="none"
        stroke="white"
        stroke-width="3"
    />

    <polygon
        points="44,166 63,181 56,174"
        fill="none"
        stroke="white"
        stroke-width="3"
    />

    <polygon
        points="45,177 136,88 50,154"
        fill="none"
        stroke="white"
        stroke-width="3"
    />

    <polygon
        points="151,121 180,58 4,27"
        fill="none"
        stroke="white"
        stroke-width="3"
    />

    <polygon
        points="166,104 56,33 75,9"
        fill="none"
        stroke="white"
        stroke-width="3"
    />

    <polygon
        points="138,62 149,187 69,111"
        fill="none"
        stroke="white"
        stroke-width="3"
    />

    <polygon
        points="149,117 142,118 35,115"
        fill="none"
        stroke="white"
        stroke-width="3"
    />

    <polygon
        points="62,8 71,65 110,81"
        fill="none"
        stroke="white"
        stroke-width="3"
    />

    <polygon
        points="169,14 156,111 63,131"
        fill="none"
        stroke="white"
        stroke-width="3"
    />

    <polygon
        points="192,124 173,179 100,64"
        fill="none"
        stroke="white"
        stroke-width="3"
    />

</svg>